<?xml version="1.0" encoding="UTF-8" standalone="no" ?>
<!DOCTYPE svg PUBLIC "-//W3C//DTD SVG 1.1//EN" "http://www.w3.org/Graphics/SVG/1.1/DTD/svg11.dtd">
<svg xmlns="http://www.w3.org/2000/svg" xmlns:xlink="http://www.w3.org/1999/xlink" version="1.1" width="1080" height="1080" viewBox="0 0 1080 1080" xml:space="preserve">
<desc>Created with Fabric.js 5.2.4</desc>
<defs>
</defs>
<rect x="0" y="0" width="100%" height="100%" fill="transparent"></rect>
<g transform="matrix(1 0 0 1 540 540)" id="02a18cdf-c188-4d44-90dd-b0aabe6e86b2"  >
<rect style="stroke: none; stroke-width: 1; stroke-dasharray: none; stroke-linecap: butt; stroke-dashoffset: 0; stroke-linejoin: miter; stroke-miterlimit: 4; fill: rgb(255,255,255); fill-rule: nonzero; opacity: 1; visibility: hidden;" vector-effect="non-scaling-stroke"  x="-540" y="-540" rx="0" ry="0" width="1080" height="1080" />
</g>
<g transform="matrix(1 0 0 1 540 540)" id="eb98a977-9761-481d-a555-9785c1dd0889"  >
</g>
<g transform="matrix(2.49 0 0 2.49 540 540)"  >
<g style=""   >
		<g transform="matrix(1 0 0 1 64.95 -5.15)" id="Layer_1"  >
<path style="stroke: none; stroke-width: 1; stroke-dasharray: none; stroke-linecap: butt; stroke-dashoffset: 0; stroke-linejoin: miter; stroke-miterlimit: 4; fill: rgb(255,255,255); fill-rule: nonzero; opacity: 1;" vector-effect="non-scaling-stroke"  transform=" translate(-281.75, -43.4)" d="M 400.2 28.9 C 400.3 28.9 400.3 28.9 400.4 28.9 C 400.49999999999994 28.9 400.59999999999997 28.9 400.7 28.9 C 402.3 28.9 404.9 34 408.7 44.3 C 410.9 50.5 412.8 55.599999999999994 414.4 59.599999999999994 C 414 60.39999999999999 413.5 61.599999999999994 412.9 62.99999999999999 C 410.59999999999997 68.19999999999999 408.79999999999995 71 407.5 71.5 C 407.2 71.6 406.7 71.8 406 71.9 C 404.3 72.2 403.4 73 403.4 74.2 C 403.4 75.10000000000001 403.7 75.8 404.29999999999995 76.4 C 404.8999999999999 77.00000000000001 405.69999999999993 77.30000000000001 406.49999999999994 77.30000000000001 C 408.8999999999999 77.30000000000001 412.29999999999995 72.00000000000001 416.79999999999995 61.40000000000001 C 418.9 56.500000000000014 420.59999999999997 52.60000000000001 421.9 49.500000000000014 C 424.59999999999997 43.500000000000014 427.09999999999997 37.80000000000001 429.5 32.30000000000001 C 429.8 31.50000000000001 430 31.100000000000012 430.1 31.00000000000001 C 430.5 30.30000000000001 430.90000000000003 29.80000000000001 431.40000000000003 29.40000000000001 C 431.90000000000003 29.10000000000001 432.50000000000006 28.90000000000001 433.3 28.90000000000001 L 433.6 28.90000000000001 L 433.6 26.60000000000001 C 432.5 26.70000000000001 431.5 26.800000000000008 430.5 26.800000000000008 C 429.5 26.90000000000001 428.7 26.90000000000001 428 26.90000000000001 C 427.1 26.90000000000001 426.2 26.90000000000001 425.2 26.800000000000008 C 424.2 26.700000000000006 423.2 26.700000000000006 422.2 26.60000000000001 L 422.2 29 L 422.7 29 C 423.8 29 424.59999999999997 29.1 425.09999999999997 29.4 C 425.59999999999997 29.699999999999996 425.79999999999995 30.2 425.79999999999995 30.799999999999997 C 425.79999999999995 31.399999999999995 425.19999999999993 33.4 423.9 36.699999999999996 C 422.6 39.99999999999999 420.5 45.3 417.4 52.599999999999994 C 416.2 49.199999999999996 414.59999999999997 44.89999999999999 412.79999999999995 39.89999999999999 C 410.79999999999995 34.599999999999994 409.9 31.699999999999992 409.9 31.09999999999999 C 409.9 30.29999999999999 410.09999999999997 29.79999999999999 410.59999999999997 29.49999999999999 C 411.09999999999997 29.19999999999999 411.79999999999995 29.09999999999999 412.9 29.09999999999999 L 413.79999999999995 29.09999999999999 L 413.79999999999995 26.79999999999999 C 411.9 26.89999999999999 410.49999999999994 26.99999999999999 409.49999999999994 27.09999999999999 C 408.49999999999994 27.199999999999992 407.59999999999997 27.199999999999992 406.8999999999999 27.199999999999992 C 406.1999999999999 27.199999999999992 405.2999999999999 27.199999999999992 404.2999999999999 27.09999999999999 C 403.2999999999999 26.99999999999999 401.9999999999999 26.99999999999999 400.2999999999999 26.89999999999999 L 400.2 28.9 L 400.2 28.9 z M 378.9 27.1 C 377.2 27.6 375.59999999999997 28.1 374 28.400000000000002 L 374.4 30.500000000000004 C 374.9 30.400000000000002 375.2 30.400000000000002 375.4 30.400000000000002 C 375.59999999999997 30.400000000000002 375.79999999999995 30.400000000000002 376 30.400000000000002 C 376.9 30.400000000000002 377.5 30.8 377.8 31.400000000000002 C 378.1 32.1 378.3 33.6 378.3 36 L 378.3 47 L 378.3 50.5 C 378.3 53.4 378 55.2 377.40000000000003 55.9 C 376.80000000000007 56.599999999999994 375.70000000000005 57.1 374.1 57.1 L 373.3 57.1 L 373.3 59.4 C 374.8 59.3 376.2 59.199999999999996 377.6 59.1 C 379.00000000000006 59.00000000000001 380.3 59 381.6 59 C 382.5 59 383.70000000000005 59 385.1 59.1 C 386.5 59.2 388 59.300000000000004 389.70000000000005 59.4 L 389.70000000000005 57.1 L 388.70000000000005 57.1 C 387.1 57.1 386.00000000000006 56.9 385.30000000000007 56.5 C 384.6000000000001 56.1 384.20000000000005 55.3 384.00000000000006 54.2 C 383.90000000000003 53.6 383.80000000000007 52.2 383.80000000000007 50 C 383.80000000000007 47.8 383.70000000000005 44.9 383.70000000000005 41.3 L 383.70000000000005 37.599999999999994 C 385.00000000000006 35.49999999999999 386.20000000000005 33.89999999999999 387.30000000000007 32.89999999999999 C 388.4000000000001 31.89999999999999 389.6000000000001 31.39999999999999 390.80000000000007 31.39999999999999 C 391.4000000000001 31.39999999999999 392.1000000000001 31.59999999999999 393.00000000000006 31.999999999999993 C 393.80000000000007 32.39999999999999 394.50000000000006 32.599999999999994 394.90000000000003 32.599999999999994 C 395.50000000000006 32.599999999999994 396.1 32.3 396.6 31.699999999999996 C 397.1 31.099999999999994 397.3 30.399999999999995 397.3 29.599999999999994 C 397.3 28.399999999999995 396.90000000000003 27.499999999999993 396.2 26.799999999999994 C 395.5 26.099999999999994 394.5 25.799999999999994 393.2 25.799999999999994 C 391.59999999999997 25.799999999999994 390 26.499999999999993 388.5 27.899999999999995 C 387 29.299999999999997 385.3 31.599999999999994 383.5 34.8 C 383.5 33.099999999999994 383.6 31.4 383.7 29.9 C 383.8 28.299999999999997 383.9 26.799999999999997 384.09999999999997 25.299999999999997 C 382.3 26 380.6 26.6 378.9 27.1 M 356.4 38 C 353.9 38.2 350.4 38.2 346 38.2 C 346.5 35.300000000000004 347.5 33 349 31.300000000000004 C 350.5 29.600000000000005 352.4 28.700000000000003 354.5 28.700000000000003 C 356.4 28.700000000000003 358 29.400000000000002 359.4 30.900000000000002 C 360.79999999999995 32.400000000000006 361.79999999999995 34.5 362.4 37.2 C 360.9 37.6 358.9 37.9 356.4 38 M 364.5 29.6 C 362.2 27 359 25.700000000000003 355.1 25.700000000000003 C 350.90000000000003 25.700000000000003 347.3 27.500000000000004 344.3 30.900000000000002 C 341.40000000000003 34.400000000000006 339.90000000000003 38.7 339.90000000000003 43.900000000000006 C 339.90000000000003 48.7 341.3 52.7 344.1 55.800000000000004 C 346.90000000000003 58.900000000000006 350.5 60.400000000000006 354.8 60.400000000000006 C 357 60.400000000000006 359.3 59.900000000000006 361.6 59.00000000000001 C 363.90000000000003 58.10000000000001 366.20000000000005 56.60000000000001 368.5 54.800000000000004 L 367.2 52.7 C 365.4 53.900000000000006 363.7 54.7 362.2 55.300000000000004 C 360.7 55.900000000000006 359 56.1 357.4 56.1 C 353.7 56.1 350.9 54.9 348.9 52.5 C 346.9 50.1 345.9 46.7 345.9 42.4 L 345.9 41 C 346.79999999999995 40.9 347.79999999999995 40.8 348.9 40.8 C 350 40.699999999999996 351.09999999999997 40.699999999999996 352.4 40.699999999999996 L 368.7 40.699999999999996 C 368.2 35.9 366.9 32.2 364.5 29.6 M 303.1 29 L 303.40000000000003 29 C 305.00000000000006 29 306.40000000000003 30.6 307.6 33.9 C 307.8 34.4 308 34.8 308 35 C 311.5 43.9 313.9 50.2 315.2 53.8 C 316.5 57.39999999999999 317.09999999999997 59.5 317.09999999999997 60.3 L 320.79999999999995 60.3 C 320.99999999999994 58.9 324.4 51 330.79999999999995 36.599999999999994 L 331.19999999999993 35.699999999999996 C 331.3999999999999 35.199999999999996 331.69999999999993 34.599999999999994 331.99999999999994 33.8 C 333.29999999999995 30.599999999999998 334.79999999999995 28.999999999999996 336.29999999999995 28.999999999999996 L 336.69999999999993 28.999999999999996 L 336.69999999999993 26.699999999999996 C 335.5999999999999 26.799999999999997 334.5999999999999 26.899999999999995 333.5999999999999 26.899999999999995 C 332.5999999999999 26.999999999999996 331.7999999999999 26.999999999999996 331.0999999999999 26.999999999999996 C 330.19999999999993 26.999999999999996 329.2999999999999 26.999999999999996 328.2999999999999 26.899999999999995 C 327.2999999999999 26.799999999999994 326.3999999999999 26.799999999999994 325.3999999999999 26.699999999999996 L 325.3999999999999 29 L 325.8999999999999 29 C 326.99999999999994 29 327.7999999999999 29.1 328.2999999999999 29.4 C 328.7999999999999 29.699999999999996 328.9999999999999 30.2 328.9999999999999 30.799999999999997 C 328.9999999999999 31.399999999999995 328.4999999999999 33.099999999999994 327.39999999999986 35.9 C 326.29999999999984 38.7 323.9999999999999 44.4 320.39999999999986 53 C 319.1999999999999 49.8 317.79999999999984 45.7 315.89999999999986 40.8 C 313.6999999999999 34.9 312.59999999999985 31.599999999999998 312.59999999999985 30.999999999999996 C 312.59999999999985 30.199999999999996 312.79999999999984 29.699999999999996 313.29999999999984 29.399999999999995 C 313.79999999999984 29.099999999999994 314.49999999999983 28.999999999999996 315.59999999999985 28.999999999999996 L 316.49999999999983 28.999999999999996 L 316.49999999999983 26.699999999999996 C 314.59999999999985 26.799999999999997 313.1999999999998 26.899999999999995 312.1999999999998 26.999999999999996 C 311.1999999999998 27.099999999999998 310.29999999999984 27.099999999999998 309.5999999999998 27.099999999999998 C 308.89999999999975 27.099999999999998 307.9999999999998 27.099999999999998 306.9999999999998 26.999999999999996 C 305.9999999999998 26.899999999999995 304.69999999999976 26.899999999999995 302.9999999999998 26.799999999999997 L 303.1 29 L 303.1 29 z M 272 30.8 C 268.7 34.2 267 38.4 267 43.3 C 267 48.199999999999996 268.5 52.3 271.6 55.5 C 274.70000000000005 58.7 278.6 60.3 283.40000000000003 60.3 C 288.20000000000005 60.3 292.20000000000005 58.5 295.40000000000003 55 C 298.6 51.5 300.3 47.2 300.3 42 C 300.3 37.3 298.8 33.4 295.7 30.3 C 292.59999999999997 27.200000000000003 288.7 25.6 284 25.6 C 279.3 25.7 275.3 27.4 272 30.8 M 291.1 33.3 C 293.20000000000005 36.099999999999994 294.3 39.699999999999996 294.3 44 C 294.3 48 293.40000000000003 51.1 291.5 53.5 C 289.6 55.8 287.1 57 284 57 C 280.8 57 278.1 55.5 276.1 52.6 C 274.1 49.7 273.1 45.9 273.1 41.2 C 273.1 37.5 274 34.6 275.8 32.400000000000006 C 277.6 30.200000000000006 280 29.100000000000005 283 29.100000000000005 C 286.4 29.2 289 30.6 291.1 33.3 M 257 55.1 C 255.6 55.6 254.3 55.800000000000004 252.9 55.800000000000004 C 249.20000000000002 55.800000000000004 246.4 54.50000000000001 244.3 52.00000000000001 C 242.20000000000002 49.50000000000001 241.20000000000002 45.900000000000006 241.20000000000002 41.400000000000006 C 241.20000000000002 37.800000000000004 242.10000000000002 35.00000000000001 243.8 32.900000000000006 C 245.5 30.800000000000004 247.8 29.800000000000004 250.70000000000002 29.800000000000004 C 252.3 29.800000000000004 254.10000000000002 30.400000000000006 255.9 31.500000000000004 C 257.7 32.6 258.8 33.2 259 33.2 C 259.7 33.2 260.4 32.900000000000006 261 32.2 C 261.6 31.5 261.9 30.700000000000003 261.9 29.800000000000004 C 261.9 28.500000000000004 261.2 27.500000000000004 259.79999999999995 26.800000000000004 C 258.3999999999999 26.100000000000005 256.4 25.700000000000003 253.79999999999995 25.700000000000003 C 248.79999999999995 25.700000000000003 244.49999999999994 27.500000000000004 240.99999999999994 30.900000000000002 C 237.49999999999994 34.3 235.79999999999995 38.7 235.79999999999995 43.7 C 235.79999999999995 48.6 237.19999999999996 52.6 239.89999999999995 55.7 C 242.69999999999996 58.800000000000004 246.19999999999996 60.400000000000006 250.59999999999994 60.400000000000006 C 252.49999999999994 60.400000000000006 254.49999999999994 60.00000000000001 256.5999999999999 59.10000000000001 C 258.69999999999993 58.20000000000001 260.7999999999999 57.00000000000001 262.9999999999999 55.30000000000001 L 261.2999999999999 52.80000000000001 C 259.7 53.9 258.3 54.6 257 55.1 M 222.8 26 C 221.5 25.8 220.3 25.7 219.20000000000002 25.7 C 215.70000000000002 25.7 212.8 26.599999999999998 210.50000000000003 28.5 C 208.20000000000005 30.400000000000002 207.10000000000002 32.7 207.10000000000002 35.6 C 207.10000000000002 38.1 207.8 40.1 209.20000000000002 41.5 C 210.60000000000002 43 213.00000000000003 44.3 216.3 45.3 C 216.5 45.4 216.9 45.5 217.3 45.599999999999994 C 222 46.99999999999999 224.4 48.89999999999999 224.4 51.39999999999999 C 224.4 53.099999999999994 223.70000000000002 54.49999999999999 222.3 55.599999999999994 C 220.9 56.699999999999996 219.10000000000002 57.199999999999996 216.8 57.199999999999996 C 214.3 57.199999999999996 212.4 56.49999999999999 211 55.099999999999994 C 209.6 53.699999999999996 208.8 51.699999999999996 208.4 48.89999999999999 L 205.9 49.49999999999999 C 206.1 50.79999999999999 206.3 52.099999999999994 206.4 53.29999999999999 C 206.5 54.499999999999986 206.6 55.59999999999999 206.6 56.59999999999999 C 206.6 57.09999999999999 206.6 57.499999999999986 206.6 57.69999999999999 C 206.6 57.89999999999999 206.6 58.19999999999999 206.5 58.39999999999999 C 208.1 58.99999999999999 209.6 59.49999999999999 211.1 59.79999999999999 C 212.6 60.09999999999999 214.1 60.29999999999999 215.6 60.29999999999999 C 219.6 60.29999999999999 222.9 59.19999999999999 225.4 57.09999999999999 C 227.9 54.999999999999986 229.20000000000002 52.29999999999999 229.20000000000002 48.999999999999986 C 229.20000000000002 46.79999999999998 228.60000000000002 44.999999999999986 227.4 43.59999999999999 C 226.2 42.19999999999999 224.3 41.19999999999999 221.6 40.499999999999986 C 221.1 40.399999999999984 220.4 40.19999999999999 219.5 39.899999999999984 C 214.2 38.499999999999986 211.6 36.499999999999986 211.6 33.999999999999986 C 211.6 32.399999999999984 212.2 31.099999999999987 213.4 30.099999999999987 C 214.60000000000002 29.099999999999987 216.1 28.599999999999987 218 28.599999999999987 C 220.2 28.599999999999987 221.9 29.19999999999999 223 30.299999999999986 C 224.2 31.399999999999988 224.9 33.19999999999999 225.2 35.499999999999986 L 227.7 35.09999999999999 C 227.39999999999998 33.69999999999999 227.2 32.29999999999999 227.1 30.899999999999988 C 227 29.499999999999986 226.9 28.099999999999987 226.9 26.79999999999999 C 225.5 26.5 224 26.2 222.8 26 M 188.5 11.4 C 187.8 11.9 187.4 12.3 187.1 12.700000000000001 C 186.9 13.100000000000001 186.79999999999998 13.500000000000002 186.79999999999998 14.000000000000002 C 186.79999999999998 14.500000000000002 186.89999999999998 14.900000000000002 187.2 15.400000000000002 C 187.5 15.800000000000002 188 16.3 188.6 16.8 L 190.9 18.6 L 193.4 16.700000000000003 C 194 16.200000000000003 194.5 15.800000000000002 194.70000000000002 15.400000000000002 C 194.9 15.000000000000002 195.10000000000002 14.600000000000001 195.10000000000002 14.100000000000001 C 195.10000000000002 13.600000000000001 195.00000000000003 13.100000000000001 194.70000000000002 12.600000000000001 C 194.4 12.100000000000001 193.9 11.700000000000001 193.3 11.200000000000001 L 191 9.5 L 188.5 11.4 z M 189.4 27.1 C 187.6 27.6 185.9 28 184.1 28.400000000000002 L 184.4 30.500000000000004 C 184.8 30.400000000000002 185.20000000000002 30.400000000000002 185.5 30.400000000000002 C 185.9 30.400000000000002 186.1 30.3 186.3 30.3 C 187.20000000000002 30.3 187.8 30.6 188.20000000000002 31.2 C 188.60000000000002 31.799999999999997 188.70000000000002 33 188.70000000000002 34.8 C 188.70000000000002 35.099999999999994 188.70000000000002 35.699999999999996 188.70000000000002 36.599999999999994 C 188.70000000000002 37.49999999999999 188.70000000000002 38.3 188.70000000000002 38.89999999999999 L 188.60000000000002 47.19999999999999 L 188.60000000000002 49 C 188.60000000000002 54.4 187.20000000000002 57.2 184.40000000000003 57.2 L 183.60000000000002 57.2 L 183.60000000000002 59.5 C 185.8 59.4 187.50000000000003 59.3 188.60000000000002 59.2 C 189.70000000000002 59.2 190.60000000000002 59.1 191.3 59.1 C 192.10000000000002 59.1 193.10000000000002 59.1 194.20000000000002 59.2 C 195.4 59.300000000000004 196.9 59.300000000000004 198.8 59.5 L 198.8 57.2 C 198.70000000000002 57.2 198.5 57.2 198.3 57.2 C 198.10000000000002 57.2 197.9 57.2 197.8 57.2 C 196.4 57.2 195.4 56.900000000000006 194.9 56.2 C 194.4 55.5 194.20000000000002 53.900000000000006 194.20000000000002 51.300000000000004 L 194.20000000000002 47.7 C 194.20000000000002 44 194.3 37.7 194.60000000000002 28.800000000000004 C 194.60000000000002 27.200000000000003 194.70000000000002 26.000000000000004 194.70000000000002 25.200000000000003 C 192.9 25.9 191.1 26.6 189.4 27.1 M 141.6 46.3 C 141.6 43.199999999999996 141.6 39.3 141.7 34.599999999999994 C 141.79999999999998 29.89999999999999 141.79999999999998 23.499999999999993 142 15.399999999999995 C 143.4 15.199999999999996 144.8 14.999999999999995 146.2 14.999999999999995 C 147.6 14.899999999999995 148.89999999999998 14.899999999999995 150.2 14.899999999999995 C 156.6 14.899999999999995 161.6 16.799999999999994 165.2 20.699999999999996 C 168.79999999999998 24.599999999999998 170.6 29.899999999999995 170.6 36.699999999999996 C 170.6 43.099999999999994 168.9 48 165.6 51.39999999999999 C 162.2 54.79999999999999 157.4 56.49999999999999 151.1 56.49999999999999 C 149.5 56.49999999999999 147.9 56.39999999999999 146.4 56.29999999999999 C 144.8 56.09999999999999 143.20000000000002 55.89999999999999 141.6 55.49999999999999 L 141.6 46.3 L 141.6 46.3 z M 134.1 59.2 C 135.4 59.1 136.5 59.1 137.4 59.1 C 139.3 59.1 141.9 59.2 145 59.4 C 148.1 59.599999999999994 150.3 59.699999999999996 151.5 59.699999999999996 C 159.5 59.699999999999996 165.9 57.4 170.7 52.9 C 175.49999999999997 48.4 177.89999999999998 42.4 177.89999999999998 34.9 C 177.89999999999998 27.7 175.49999999999997 21.9 170.7 17.7 C 165.9 13.5 159.39999999999998 11.399999999999999 151.1 11.399999999999999 C 150.6 11.399999999999999 148.9 11.499999999999998 145.9 11.7 C 142.9 11.9 140.20000000000002 12 137.8 12 C 136.9 12 135.9 12 134.60000000000002 11.9 C 133.30000000000004 11.8 132.00000000000003 11.8 130.50000000000003 11.700000000000001 L 130.50000000000003 14 L 130.80000000000004 14 C 132.60000000000005 14 133.90000000000003 14.4 134.60000000000005 15.1 C 135.30000000000007 15.799999999999999 135.70000000000005 17.2 135.70000000000005 19.1 C 135.70000000000005 21.400000000000002 135.70000000000005 23.5 135.70000000000005 25.3 C 135.70000000000005 27.1 135.70000000000005 29 135.70000000000005 30.9 L 135.60000000000005 39.8 C 135.60000000000005 41 135.60000000000005 42.599999999999994 135.50000000000006 44.699999999999996 C 135.50000000000006 53 134.00000000000006 57.099999999999994 131.00000000000006 57.099999999999994 C 130.70000000000005 57.099999999999994 130.50000000000006 57.099999999999994 130.30000000000007 57.099999999999994 C 130.10000000000008 57.099999999999994 130.00000000000006 57.099999999999994 129.90000000000006 57.099999999999994 L 129.90000000000006 59.39999999999999 C 131.4 59.3 132.8 59.3 134.1 59.2" stroke-linecap="round" />
</g>
		<g transform="matrix(1 0 0 1 49.65 30.25)" id="Layer_1"  >
<path style="stroke: none; stroke-width: 1; stroke-dasharray: none; stroke-linecap: butt; stroke-dashoffset: 0; stroke-linejoin: miter; stroke-miterlimit: 4; fill: rgb(255,255,255); fill-rule: nonzero; opacity: 1;" vector-effect="non-scaling-stroke"  transform=" translate(-266.45, -78.8)" d="M 386 86.4 L 387.9 86.4 L 387.9 79.7 L 393 71.2 L 390.8 71.2 L 387 77.8 L 383.2 71.2 L 381 71.2 L 386 79.7 L 386 86.4 L 386 86.4 z M 368.7 86.4 L 370.59999999999997 86.4 L 370.59999999999997 71.2 L 368.7 71.2 L 368.7 83.10000000000001 L 359.9 71.2 L 357.59999999999997 71.2 L 357.59999999999997 71.4 L 358.7 73 L 358.7 86.6 L 360.59999999999997 86.6 L 360.59999999999997 75.6 L 368.7 86.4 z M 341.4 73.7 L 343.9 80.3 L 339 80.3 L 341.4 73.7 z M 346 86.4 L 348.2 86.4 L 342.4 71.10000000000001 L 340.2 71.10000000000001 L 334.4 86.4 L 336.59999999999997 86.4 L 338.09999999999997 82.10000000000001 L 344.29999999999995 82.10000000000001 L 346 86.4 z M 324.5 75.8 C 324.5 77.7 323.3 78.5 321.7 78.5 L 319.09999999999997 78.5 L 319.09999999999997 73 L 321.7 73 C 323.2 73 324.5 73.9 324.5 75.8 M 317.2 86.4 L 319.09999999999997 86.4 L 319.09999999999997 80.30000000000001 L 321.7 80.30000000000001 C 324.59999999999997 80.30000000000001 326.5 78.60000000000001 326.5 75.70000000000002 C 326.5 72.80000000000003 324.5 71.10000000000002 321.7 71.10000000000002 L 317.2 71.10000000000002 L 317.2 86.4 z M 298.2 86.4 L 303.09999999999997 74.80000000000001 L 303.09999999999997 86.4 L 304.99999999999994 86.4 L 304.99999999999994 71.2 L 302.69999999999993 71.2 L 297.4 84 L 291.9 71.2 L 289.59999999999997 71.2 L 289.59999999999997 86.5 L 291.49999999999994 86.5 L 291.49999999999994 74.8 L 296.3999999999999 86.39999999999999 L 298.2 86.39999999999999 z M 264.9 78.8 C 264.9 75.5 267.4 72.89999999999999 270.7 72.89999999999999 C 274.09999999999997 72.89999999999999 276.59999999999997 75.49999999999999 276.59999999999997 78.8 C 276.59999999999997 82.2 274.09999999999997 84.8 270.7 84.8 C 267.4 84.8 264.9 82.1 264.9 78.8 M 262.9 78.8 C 262.9 83.3 266.29999999999995 86.7 270.79999999999995 86.7 C 275.29999999999995 86.7 278.69999999999993 83.3 278.69999999999993 78.8 C 278.69999999999993 74.3 275.29999999999995 70.89999999999999 270.79999999999995 70.89999999999999 C 266.29999999999995 70.89999999999999 262.9 74.3 262.9 78.8 M 253.1 83.4 C 252.1 84.30000000000001 250.7 84.80000000000001 249.1 84.80000000000001 C 245.7 84.80000000000001 243.29999999999998 82.20000000000002 243.29999999999998 78.80000000000001 C 243.29999999999998 75.50000000000001 245.79999999999998 72.9 249.1 72.9 C 250.7 72.9 252.1 73.4 253.1 74.30000000000001 L 253.1 72 C 252 71.3 250.6 70.9 249.1 70.9 C 244.6 70.9 241.2 74.30000000000001 241.2 78.80000000000001 C 241.2 83.30000000000001 244.6 86.70000000000002 249.1 86.70000000000002 C 250.6 86.70000000000002 252 86.30000000000001 253.1 85.60000000000002 L 253.1 83.4 z M 210.4 73 C 213.8 73 215.9 75.5 215.9 78.8 C 215.9 82.2 213.8 84.6 210.4 84.6 L 207 84.6 L 207 73 L 210.4 73 z M 205 86.4 L 210.4 86.4 C 215 86.4 217.9 83.2 217.9 78.80000000000001 C 217.9 74.40000000000002 215 71.20000000000002 210.4 71.20000000000002 L 205 71.20000000000002 L 205 86.4 z M 191 86.4 L 192.9 86.4 L 192.9 71.2 L 191 71.2 L 191 83.10000000000001 L 182.2 71.2 L 179.89999999999998 71.2 L 179.89999999999998 71.4 L 181 73 L 181 86.6 L 182.9 86.6 L 182.9 75.6 L 191 86.4 z M 163.7 73.7 L 166.1 80.3 L 161.2 80.3 L 163.7 73.7 z M 168.4 86.4 L 170.6 86.4 L 164.79999999999998 71.10000000000001 L 162.6 71.10000000000001 L 156.79999999999998 86.4 L 158.99999999999997 86.4 L 160.49999999999997 82.10000000000001 L 166.69999999999996 82.10000000000001 L 168.4 86.4 z M 148.1 86.4 L 148.1 84.60000000000001 L 141.79999999999998 84.60000000000001 L 141.79999999999998 71.2 L 139.89999999999998 71.2 L 139.89999999999998 86.5 L 148.1 86.4 L 148.1 86.4 z" stroke-linecap="round" />
</g>
		<g transform="matrix(1 0 0 1 -168.3 -0.1)" id="Layer_1"  >
<path style="stroke: none; stroke-width: 1; stroke-dasharray: none; stroke-linecap: butt; stroke-dashoffset: 0; stroke-linejoin: miter; stroke-miterlimit: 4; fill: rgb(255,255,255); fill-rule: nonzero; opacity: 1;" vector-effect="non-scaling-stroke"  transform=" translate(-48.5, -48.45)" d="M 4.7 48.6 C 4.7 43.7 5.5 39 6.9 34.7 C 8.4 30.300000000000004 10.5 26.200000000000003 13.2 22.500000000000004 C 16 18.700000000000003 19.4 15.500000000000004 23.2 12.700000000000003 C 27 10.2 31 7.9 35.4 6.6 C 39.6 5.3 44 4.8999999999999995 48.599999999999994 4.8999999999999995 C 53.49999999999999 4.8999999999999995 58.199999999999996 5.3999999999999995 62.599999999999994 6.799999999999999 C 67 8.299999999999999 71.1 10.599999999999998 74.69999999999999 13.299999999999999 C 78.49999999999999 16.099999999999998 81.79999999999998 19.5 84.49999999999999 23.299999999999997 C 87.09999999999998 26.999999999999996 89.19999999999999 31.099999999999998 90.59999999999998 35.4 C 91.89999999999998 39.6 92.39999999999998 44 92.39999999999998 48.599999999999994 C 92.39999999999998 53.49999999999999 91.69999999999997 58.099999999999994 90.19999999999997 62.49999999999999 C 88.69999999999997 66.89999999999999 86.69999999999997 71.1 83.99999999999997 74.69999999999999 C 81.19999999999997 78.49999999999999 77.79999999999997 81.79999999999998 73.89999999999998 84.49999999999999 C 70.19999999999997 87.09999999999998 66.09999999999998 89.09999999999998 61.699999999999974 90.49999999999999 C 57.49999999999997 91.79999999999998 53.09999999999997 92.59999999999998 48.49999999999997 92.59999999999998 C 43.59999999999997 92.59999999999998 38.89999999999997 91.79999999999998 34.59999999999997 90.29999999999998 C 30.199999999999974 88.79999999999998 26.199999999999974 86.59999999999998 22.49999999999997 83.89999999999998 C 18.69999999999997 81.09999999999998 15.299999999999972 77.89999999999998 12.499999999999972 73.99999999999997 C 9.899999999999972 70.29999999999997 7.899999999999972 66.19999999999997 6.499999999999972 61.79999999999997 C 5.3 57.7 4.7 53.2 4.7 48.6 M 3.7 48.6 C 3.7 53.5 4.5 58.1 5.9 62.5 C 7.4 67.1 9.5 71.4 12.3 75.2 C 15.100000000000001 79 18.5 82.3 22.3 85.10000000000001 C 26.1 87.80000000000001 30.3 90.00000000000001 34.8 91.50000000000001 C 39.099999999999994 92.90000000000002 43.8 93.40000000000002 48.5 93.40000000000002 C 53.4 93.40000000000002 58.1 92.90000000000002 62.5 91.40000000000002 C 67.1 89.90000000000002 71.4 87.70000000000002 75.2 84.90000000000002 C 79 82.10000000000002 82.2 78.60000000000002 85 74.80000000000003 C 87.7 71.00000000000003 89.7 66.80000000000003 91.2 62.200000000000024 C 92.60000000000001 57.90000000000003 93.3 53.300000000000026 93.3 48.50000000000003 C 93.3 43.60000000000003 92.6 39.00000000000003 91.1 34.60000000000003 C 89.6 30.00000000000003 87.69999999999999 25.60000000000003 84.89999999999999 21.80000000000003 C 82.1 18.00000000000003 78.69999999999999 14.70000000000003 74.89999999999999 11.900000000000029 C 71.1 9.200000000000028 66.89999999999999 7.000000000000028 62.29999999999999 5.600000000000029 C 57.99999999999999 4.2000000000000295 53.29999999999999 3.500000000000029 48.599999999999994 3.500000000000029 C 43.699999999999996 3.500000000000029 38.99999999999999 4.300000000000029 34.599999999999994 5.800000000000029 C 29.999999999999993 7.300000000000029 25.699999999999996 9.400000000000029 21.899999999999995 12.20000000000003 C 18.099999999999994 15.00000000000003 14.799999999999995 18.40000000000003 12.099999999999994 22.30000000000003 C 9.4 26.1 7.4 30.4 5.9 35 C 4.5 39.3 3.7 43.9 3.7 48.6" stroke-linecap="round" />
</g>
		<g transform="matrix(1 0 0 1 -207.21 17.2)" id="Layer_1"  >
<path style="stroke: none; stroke-width: 1; stroke-dasharray: none; stroke-linecap: butt; stroke-dashoffset: 0; stroke-linejoin: miter; stroke-miterlimit: 4; fill: rgb(255,255,255); fill-rule: nonzero; opacity: 1;" vector-effect="non-scaling-stroke"  transform=" translate(-9.59, -65.75)" d="M 9.8 66.2 C 9.5 66.3 9.3 66.2 9.100000000000001 65.9 C 9.000000000000002 65.7 9.100000000000001 65.4 9.400000000000002 65.30000000000001 C 9.700000000000003 65.20000000000002 10.000000000000002 65.30000000000001 10.100000000000001 65.60000000000001 C 10.2 65.8 10 66.1 9.8 66.2" stroke-linecap="round" />
</g>
		<g transform="matrix(1 0 0 1 -204.2 16)" id="Layer_1"  >
<path style="stroke: none; stroke-width: 1; stroke-dasharray: none; stroke-linecap: butt; stroke-dashoffset: 0; stroke-linejoin: miter; stroke-miterlimit: 4; fill: rgb(255,255,255); fill-rule: nonzero; opacity: 1;" vector-effect="non-scaling-stroke"  transform=" translate(-12.6, -64.55)" d="M 12.8 65 C 12.5 65.1 12.3 65 12.100000000000001 64.7 C 12.000000000000002 64.5 12.100000000000001 64.2 12.400000000000002 64.10000000000001 C 12.700000000000003 64.00000000000001 13.000000000000002 64.10000000000001 13.100000000000001 64.4 C 13.2 64.6 13.1 64.9 12.8 65" stroke-linecap="round" />
</g>
		<g transform="matrix(1 0 0 1 -201.11 14.8)" id="Layer_1"  >
<path style="stroke: none; stroke-width: 1; stroke-dasharray: none; stroke-linecap: butt; stroke-dashoffset: 0; stroke-linejoin: miter; stroke-miterlimit: 4; fill: rgb(255,255,255); fill-rule: nonzero; opacity: 1;" vector-effect="non-scaling-stroke"  transform=" translate(-15.69, -63.35)" d="M 15.9 63.8 C 15.6 63.9 15.4 63.8 15.200000000000001 63.5 C 15.100000000000001 63.3 15.200000000000001 63 15.500000000000002 62.9 C 15.800000000000002 62.8 16.1 62.9 16.200000000000003 63.199999999999996 C 16.3 63.4 16.1 63.7 15.9 63.8" stroke-linecap="round" />
</g>
		<g transform="matrix(1 0 0 1 -198.01 13.6)" id="Layer_1"  >
<path style="stroke: none; stroke-width: 1; stroke-dasharray: none; stroke-linecap: butt; stroke-dashoffset: 0; stroke-linejoin: miter; stroke-miterlimit: 4; fill: rgb(255,255,255); fill-rule: nonzero; opacity: 1;" vector-effect="non-scaling-stroke"  transform=" translate(-18.79, -62.15)" d="M 19 62.6 C 18.7 62.7 18.5 62.6 18.3 62.300000000000004 C 18.2 62.1 18.3 61.800000000000004 18.6 61.7 C 18.900000000000002 61.6 19.200000000000003 61.7 19.3 62 C 19.4 62.1 19.2 62.4 19 62.6" stroke-linecap="round" />
</g>
		<g transform="matrix(1 0 0 1 -195 12.3)" id="Layer_1"  >
<path style="stroke: none; stroke-width: 1; stroke-dasharray: none; stroke-linecap: butt; stroke-dashoffset: 0; stroke-linejoin: miter; stroke-miterlimit: 4; fill: rgb(255,255,255); fill-rule: nonzero; opacity: 1;" vector-effect="non-scaling-stroke"  transform=" translate(-21.8, -60.85)" d="M 22 61.3 C 21.7 61.4 21.5 61.3 21.3 61 C 21.2 60.8 21.3 60.5 21.6 60.4 C 21.900000000000002 60.3 22.200000000000003 60.4 22.3 60.699999999999996 C 22.4 60.9 22.3 61.2 22 61.3" stroke-linecap="round" />
</g>
		<g transform="matrix(1 0 0 1 -191.9 11.1)" id="Layer_1"  >
<path style="stroke: none; stroke-width: 1; stroke-dasharray: none; stroke-linecap: butt; stroke-dashoffset: 0; stroke-linejoin: miter; stroke-miterlimit: 4; fill: rgb(255,255,255); fill-rule: nonzero; opacity: 1;" vector-effect="non-scaling-stroke"  transform=" translate(-24.9, -59.65)" d="M 25.1 60.1 C 24.8 60.2 24.6 60.1 24.400000000000002 59.800000000000004 C 24.3 59.6 24.400000000000002 59.300000000000004 24.700000000000003 59.2 C 25.000000000000004 59.1 25.300000000000004 59.2 25.400000000000002 59.5 C 25.5 59.7 25.4 60 25.1 60.1" stroke-linecap="round" />
</g>
		<g transform="matrix(1 0 0 1 -188.8 9.8)" id="Layer_1"  >
<path style="stroke: none; stroke-width: 1; stroke-dasharray: none; stroke-linecap: butt; stroke-dashoffset: 0; stroke-linejoin: miter; stroke-miterlimit: 4; fill: rgb(255,255,255); fill-rule: nonzero; opacity: 1;" vector-effect="non-scaling-stroke"  transform=" translate(-28, -58.35)" d="M 28.2 58.8 C 27.9 58.9 27.7 58.8 27.5 58.5 C 27.4 58.3 27.5 58 27.8 57.9 C 28.1 57.8 28.400000000000002 57.9 28.5 58.199999999999996 C 28.6 58.4 28.5 58.7 28.2 58.8" stroke-linecap="round" />
</g>
		<g transform="matrix(1 0 0 1 -185.71 8.6)" id="Layer_1"  >
<path style="stroke: none; stroke-width: 1; stroke-dasharray: none; stroke-linecap: butt; stroke-dashoffset: 0; stroke-linejoin: miter; stroke-miterlimit: 4; fill: rgb(255,255,255); fill-rule: nonzero; opacity: 1;" vector-effect="non-scaling-stroke"  transform=" translate(-31.09, -57.15)" d="M 31.3 57.6 C 31 57.7 30.8 57.6 30.6 57.300000000000004 C 30.5 57.1 30.6 56.800000000000004 30.900000000000002 56.7 C 31.200000000000003 56.6 31.500000000000004 56.7 31.6 57 C 31.7 57.2 31.5 57.5 31.3 57.6" stroke-linecap="round" />
</g>
		<g transform="matrix(1 0 0 1 -182.7 7.4)" id="Layer_1"  >
<path style="stroke: none; stroke-width: 1; stroke-dasharray: none; stroke-linecap: butt; stroke-dashoffset: 0; stroke-linejoin: miter; stroke-miterlimit: 4; fill: rgb(255,255,255); fill-rule: nonzero; opacity: 1;" vector-effect="non-scaling-stroke"  transform=" translate(-34.1, -55.95)" d="M 34.3 56.4 C 34 56.5 33.8 56.4 33.599999999999994 56.1 C 33.49999999999999 55.9 33.599999999999994 55.6 33.89999999999999 55.5 C 34.19999999999999 55.4 34.49999999999999 55.5 34.599999999999994 55.8 C 34.7 56 34.6 56.3 34.3 56.4" stroke-linecap="round" />
</g>
		<g transform="matrix(1 0 0 1 -186.19 38.75)" id="Layer_1"  >
<path style="stroke: none; stroke-width: 1; stroke-dasharray: none; stroke-linecap: butt; stroke-dashoffset: 0; stroke-linejoin: miter; stroke-miterlimit: 4; fill: rgb(255,255,255); fill-rule: nonzero; opacity: 1;" vector-effect="non-scaling-stroke"  transform=" translate(-30.61, -87.3)" d="M 31 87.5 C 30.9 87.8 30.6 87.9 30.4 87.8 C 30.199999999999996 87.69999999999999 30 87.39999999999999 30.2 87.1 C 30.4 86.8 30.599999999999998 86.69999999999999 30.9 86.8 C 31.1 86.9 31.2 87.2 31 87.5" stroke-linecap="round" />
</g>
		<g transform="matrix(1 0 0 1 -184.9 35.65)" id="Layer_1"  >
<path style="stroke: none; stroke-width: 1; stroke-dasharray: none; stroke-linecap: butt; stroke-dashoffset: 0; stroke-linejoin: miter; stroke-miterlimit: 4; fill: rgb(255,255,255); fill-rule: nonzero; opacity: 1;" vector-effect="non-scaling-stroke"  transform=" translate(-31.9, -84.2)" d="M 32.3 84.4 C 32.199999999999996 84.7 31.9 84.80000000000001 31.699999999999996 84.7 C 31.499999999999993 84.6 31.299999999999997 84.3 31.499999999999996 84 C 31.699999999999996 83.7 31.899999999999995 83.6 32.199999999999996 83.7 C 32.3 83.8 32.5 84.1 32.3 84.4" stroke-linecap="round" />
</g>
		<g transform="matrix(1 0 0 1 -183.62 32.55)" id="Layer_1"  >
<path style="stroke: none; stroke-width: 1; stroke-dasharray: none; stroke-linecap: butt; stroke-dashoffset: 0; stroke-linejoin: miter; stroke-miterlimit: 4; fill: rgb(255,255,255); fill-rule: nonzero; opacity: 1;" vector-effect="non-scaling-stroke"  transform=" translate(-33.18, -81.1)" d="M 33.6 81.3 C 33.5 81.6 33.2 81.7 33 81.6 C 32.8 81.5 32.6 81.19999999999999 32.8 80.89999999999999 C 32.9 80.6 33.199999999999996 80.49999999999999 33.5 80.6 C 33.6 80.8 33.7 81.1 33.6 81.3" stroke-linecap="round" />
</g>
		<g transform="matrix(1 0 0 1 -182.32 29.45)" id="Layer_1"  >
<path style="stroke: none; stroke-width: 1; stroke-dasharray: none; stroke-linecap: butt; stroke-dashoffset: 0; stroke-linejoin: miter; stroke-miterlimit: 4; fill: rgb(255,255,255); fill-rule: nonzero; opacity: 1;" vector-effect="non-scaling-stroke"  transform=" translate(-34.48, -78)" d="M 34.9 78.2 C 34.8 78.5 34.5 78.60000000000001 34.3 78.5 C 34.099999999999994 78.4 33.9 78.1 34.099999999999994 77.8 C 34.29999999999999 77.5 34.49999999999999 77.39999999999999 34.8 77.5 C 34.9 77.7 35 78 34.9 78.2" stroke-linecap="round" />
</g>
		<g transform="matrix(1 0 0 1 -181.02 26.45)" id="Layer_1"  >
<path style="stroke: none; stroke-width: 1; stroke-dasharray: none; stroke-linecap: butt; stroke-dashoffset: 0; stroke-linejoin: miter; stroke-miterlimit: 4; fill: rgb(255,255,255); fill-rule: nonzero; opacity: 1;" vector-effect="non-scaling-stroke"  transform=" translate(-35.78, -75)" d="M 36.2 75.2 C 36.1 75.5 35.800000000000004 75.60000000000001 35.6 75.5 C 35.4 75.4 35.2 75.1 35.4 74.8 C 35.5 74.5 35.8 74.39999999999999 36.1 74.5 C 36.2 74.6 36.3 74.9 36.2 75.2" stroke-linecap="round" />
</g>
		<g transform="matrix(1 0 0 1 -179.72 23.35)" id="Layer_1"  >
<path style="stroke: none; stroke-width: 1; stroke-dasharray: none; stroke-linecap: butt; stroke-dashoffset: 0; stroke-linejoin: miter; stroke-miterlimit: 4; fill: rgb(255,255,255); fill-rule: nonzero; opacity: 1;" vector-effect="non-scaling-stroke"  transform=" translate(-37.08, -71.9)" d="M 37.5 72.1 C 37.4 72.39999999999999 37.1 72.5 36.9 72.39999999999999 C 36.699999999999996 72.3 36.5 71.99999999999999 36.699999999999996 71.69999999999999 C 36.89999999999999 71.39999999999999 37.099999999999994 71.29999999999998 37.4 71.39999999999999 C 37.5 71.5 37.6 71.8 37.5 72.1" stroke-linecap="round" />
</g>
		<g transform="matrix(1 0 0 1 -178.42 20.25)" id="Layer_1"  >
<path style="stroke: none; stroke-width: 1; stroke-dasharray: none; stroke-linecap: butt; stroke-dashoffset: 0; stroke-linejoin: miter; stroke-miterlimit: 4; fill: rgb(255,255,255); fill-rule: nonzero; opacity: 1;" vector-effect="non-scaling-stroke"  transform=" translate(-38.38, -68.8)" d="M 38.8 69 C 38.699999999999996 69.3 38.4 69.4 38.199999999999996 69.3 C 37.99999999999999 69.2 37.8 68.89999999999999 37.99999999999999 68.6 C 38.099999999999994 68.3 38.39999999999999 68.19999999999999 38.699999999999996 68.3 C 38.8 68.4 38.9 68.7 38.8 69" stroke-linecap="round" />
</g>
		<g transform="matrix(1 0 0 1 -177.12 17.15)" id="Layer_1"  >
<path style="stroke: none; stroke-width: 1; stroke-dasharray: none; stroke-linecap: butt; stroke-dashoffset: 0; stroke-linejoin: miter; stroke-miterlimit: 4; fill: rgb(255,255,255); fill-rule: nonzero; opacity: 1;" vector-effect="non-scaling-stroke"  transform=" translate(-39.68, -65.7)" d="M 40.1 65.9 C 40 66.2 39.7 66.30000000000001 39.5 66.2 C 39.3 66.10000000000001 39.1 65.8 39.3 65.5 C 39.49999999999999 65.2 39.699999999999996 65.1 40 65.2 C 40.1 65.3 40.2 65.6 40.1 65.9" stroke-linecap="round" />
</g>
		<g transform="matrix(1 0 0 1 -175.89 14.15)" id="Layer_1"  >
<path style="stroke: none; stroke-width: 1; stroke-dasharray: none; stroke-linecap: butt; stroke-dashoffset: 0; stroke-linejoin: miter; stroke-miterlimit: 4; fill: rgb(255,255,255); fill-rule: nonzero; opacity: 1;" vector-effect="non-scaling-stroke"  transform=" translate(-40.91, -62.7)" d="M 41.3 62.9 C 41.199999999999996 63.199999999999996 40.9 63.3 40.699999999999996 63.199999999999996 C 40.49999999999999 63.099999999999994 40.3 62.8 40.49999999999999 62.49999999999999 C 40.69999999999999 62.19999999999999 40.89999999999999 62.099999999999994 41.199999999999996 62.199999999999996 C 41.4 62.3 41.5 62.6 41.3 62.9" stroke-linecap="round" />
</g>
		<g transform="matrix(1 0 0 1 -150.78 38.75)" id="Layer_1"  >
<path style="stroke: none; stroke-width: 1; stroke-dasharray: none; stroke-linecap: butt; stroke-dashoffset: 0; stroke-linejoin: miter; stroke-miterlimit: 4; fill: rgb(255,255,255); fill-rule: nonzero; opacity: 1;" vector-effect="non-scaling-stroke"  transform=" translate(-66.02, -87.3)" d="M 65.6 87.5 C 65.69999999999999 87.8 66 87.9 66.19999999999999 87.8 C 66.39999999999998 87.69999999999999 66.6 87.39999999999999 66.39999999999999 87.1 C 66.19999999999999 86.8 65.99999999999999 86.69999999999999 65.69999999999999 86.8 C 65.6 86.9 65.5 87.2 65.6 87.5" stroke-linecap="round" />
</g>
		<g transform="matrix(1 0 0 1 -152.08 35.65)" id="Layer_1"  >
<path style="stroke: none; stroke-width: 1; stroke-dasharray: none; stroke-linecap: butt; stroke-dashoffset: 0; stroke-linejoin: miter; stroke-miterlimit: 4; fill: rgb(255,255,255); fill-rule: nonzero; opacity: 1;" vector-effect="non-scaling-stroke"  transform=" translate(-64.72, -84.2)" d="M 64.3 84.4 C 64.39999999999999 84.7 64.7 84.80000000000001 64.89999999999999 84.7 C 65.09999999999998 84.6 65.3 84.3 65.1 84 C 64.89999999999999 83.7 64.69999999999999 83.6 64.39999999999999 83.7 C 64.3 83.8 64.2 84.1 64.3 84.4" stroke-linecap="round" />
</g>
		<g transform="matrix(1 0 0 1 -153.38 32.55)" id="Layer_1"  >
<path style="stroke: none; stroke-width: 1; stroke-dasharray: none; stroke-linecap: butt; stroke-dashoffset: 0; stroke-linejoin: miter; stroke-miterlimit: 4; fill: rgb(255,255,255); fill-rule: nonzero; opacity: 1;" vector-effect="non-scaling-stroke"  transform=" translate(-63.42, -81.1)" d="M 63 81.3 C 63.1 81.6 63.4 81.7 63.6 81.6 C 63.800000000000004 81.49999999999999 64 81.19999999999999 63.800000000000004 80.89999999999999 C 63.7 80.6 63.400000000000006 80.49999999999999 63.1 80.6 C 63 80.8 62.9 81.1 63 81.3" stroke-linecap="round" />
</g>
		<g transform="matrix(1 0 0 1 -154.68 29.45)" id="Layer_1"  >
<path style="stroke: none; stroke-width: 1; stroke-dasharray: none; stroke-linecap: butt; stroke-dashoffset: 0; stroke-linejoin: miter; stroke-miterlimit: 4; fill: rgb(255,255,255); fill-rule: nonzero; opacity: 1;" vector-effect="non-scaling-stroke"  transform=" translate(-62.12, -78)" d="M 61.7 78.2 C 61.800000000000004 78.5 62.1 78.60000000000001 62.300000000000004 78.5 C 62.50000000000001 78.39999999999999 62.7 78.1 62.50000000000001 77.8 C 62.30000000000001 77.5 62.10000000000001 77.39999999999999 61.800000000000004 77.5 C 61.7 77.7 61.6 78 61.7 78.2" stroke-linecap="round" />
</g>
		<g transform="matrix(1 0 0 1 -155.98 26.45)" id="Layer_1"  >
<path style="stroke: none; stroke-width: 1; stroke-dasharray: none; stroke-linecap: butt; stroke-dashoffset: 0; stroke-linejoin: miter; stroke-miterlimit: 4; fill: rgb(255,255,255); fill-rule: nonzero; opacity: 1;" vector-effect="non-scaling-stroke"  transform=" translate(-60.82, -75)" d="M 60.4 75.2 C 60.5 75.5 60.8 75.60000000000001 61 75.5 C 61.2 75.39999999999999 61.4 75.1 61.2 74.8 C 61.1 74.5 60.800000000000004 74.39999999999999 60.5 74.5 C 60.4 74.6 60.3 74.9 60.4 75.2" stroke-linecap="round" />
</g>
		<g transform="matrix(1 0 0 1 -157.28 23.35)" id="Layer_1"  >
<path style="stroke: none; stroke-width: 1; stroke-dasharray: none; stroke-linecap: butt; stroke-dashoffset: 0; stroke-linejoin: miter; stroke-miterlimit: 4; fill: rgb(255,255,255); fill-rule: nonzero; opacity: 1;" vector-effect="non-scaling-stroke"  transform=" translate(-59.52, -71.9)" d="M 59.1 72.1 C 59.2 72.39999999999999 59.5 72.5 59.7 72.39999999999999 C 59.900000000000006 72.29999999999998 60.1 71.99999999999999 59.900000000000006 71.69999999999999 C 59.70000000000001 71.39999999999999 59.50000000000001 71.29999999999998 59.2 71.39999999999999 C 59.1 71.5 59 71.8 59.1 72.1" stroke-linecap="round" />
</g>
		<g transform="matrix(1 0 0 1 -158.58 20.25)" id="Layer_1"  >
<path style="stroke: none; stroke-width: 1; stroke-dasharray: none; stroke-linecap: butt; stroke-dashoffset: 0; stroke-linejoin: miter; stroke-miterlimit: 4; fill: rgb(255,255,255); fill-rule: nonzero; opacity: 1;" vector-effect="non-scaling-stroke"  transform=" translate(-58.22, -68.8)" d="M 57.8 69 C 57.9 69.3 58.199999999999996 69.4 58.4 69.3 C 58.6 69.2 58.8 68.89999999999999 58.6 68.6 C 58.5 68.3 58.2 68.19999999999999 57.9 68.3 C 57.8 68.4 57.7 68.7 57.8 69" stroke-linecap="round" />
</g>
		<g transform="matrix(1 0 0 1 -159.8 17.15)" id="Layer_1"  >
<path style="stroke: none; stroke-width: 1; stroke-dasharray: none; stroke-linecap: butt; stroke-dashoffset: 0; stroke-linejoin: miter; stroke-miterlimit: 4; fill: rgb(255,255,255); fill-rule: nonzero; opacity: 1;" vector-effect="non-scaling-stroke"  transform=" translate(-57, -65.7)" d="M 56.6 65.9 C 56.7 66.2 57 66.30000000000001 57.2 66.2 C 57.400000000000006 66.10000000000001 57.6 65.8 57.400000000000006 65.5 C 57.20000000000001 65.2 57.00000000000001 65.1 56.7 65.2 C 56.6 65.3 56.4 65.6 56.6 65.9" stroke-linecap="round" />
</g>
		<g transform="matrix(1 0 0 1 -161.08 14.15)" id="Layer_1"  >
<path style="stroke: none; stroke-width: 1; stroke-dasharray: none; stroke-linecap: butt; stroke-dashoffset: 0; stroke-linejoin: miter; stroke-miterlimit: 4; fill: rgb(255,255,255); fill-rule: nonzero; opacity: 1;" vector-effect="non-scaling-stroke"  transform=" translate(-55.72, -62.7)" d="M 55.3 62.9 C 55.4 63.199999999999996 55.699999999999996 63.3 55.9 63.199999999999996 C 56.1 63.099999999999994 56.3 62.8 56.1 62.49999999999999 C 55.900000000000006 62.19999999999999 55.7 62.099999999999994 55.4 62.199999999999996 C 55.3 62.3 55.2 62.6 55.3 62.9" stroke-linecap="round" />
</g>
		<g transform="matrix(1 0 0 1 -129.5 -17.05)" id="Layer_1"  >
<path style="stroke: none; stroke-width: 1; stroke-dasharray: none; stroke-linecap: butt; stroke-dashoffset: 0; stroke-linejoin: miter; stroke-miterlimit: 4; fill: rgb(255,255,255); fill-rule: nonzero; opacity: 1;" vector-effect="non-scaling-stroke"  transform=" translate(-87.3, -31.5)" d="M 87.5 31.9 C 87.8 31.799999999999997 87.9 31.5 87.8 31.299999999999997 C 87.69999999999999 31.099999999999994 87.39999999999999 30.9 87.1 31.099999999999998 C 86.8 31.299999999999997 86.69999999999999 31.499999999999996 86.8 31.799999999999997 C 86.9 31.9 87.2 32.1 87.5 31.9" stroke-linecap="round" />
</g>
		<g transform="matrix(1 0 0 1 -132.5 -15.75)" id="Layer_1"  >
<path style="stroke: none; stroke-width: 1; stroke-dasharray: none; stroke-linecap: butt; stroke-dashoffset: 0; stroke-linejoin: miter; stroke-miterlimit: 4; fill: rgb(255,255,255); fill-rule: nonzero; opacity: 1;" vector-effect="non-scaling-stroke"  transform=" translate(-84.3, -32.8)" d="M 84.5 33.2 C 84.8 33.1 84.9 32.800000000000004 84.8 32.6 C 84.7 32.4 84.39999999999999 32.2 84.1 32.4 C 83.8 32.599999999999994 83.69999999999999 32.8 83.8 33.1 C 83.9 33.2 84.2 33.4 84.5 33.2" stroke-linecap="round" />
</g>
		<g transform="matrix(1 0 0 1 -135.6 -14.47)" id="Layer_1"  >
<path style="stroke: none; stroke-width: 1; stroke-dasharray: none; stroke-linecap: butt; stroke-dashoffset: 0; stroke-linejoin: miter; stroke-miterlimit: 4; fill: rgb(255,255,255); fill-rule: nonzero; opacity: 1;" vector-effect="non-scaling-stroke"  transform=" translate(-81.2, -34.08)" d="M 81.4 34.5 C 81.7 34.4 81.80000000000001 34.1 81.7 33.9 C 81.60000000000001 33.699999999999996 81.3 33.5 81 33.699999999999996 C 80.7 33.89999999999999 80.6 34.099999999999994 80.7 34.4 C 80.9 34.5 81.2 34.6 81.4 34.5" stroke-linecap="round" />
</g>
		<g transform="matrix(1 0 0 1 -138.6 -13.17)" id="Layer_1"  >
<path style="stroke: none; stroke-width: 1; stroke-dasharray: none; stroke-linecap: butt; stroke-dashoffset: 0; stroke-linejoin: miter; stroke-miterlimit: 4; fill: rgb(255,255,255); fill-rule: nonzero; opacity: 1;" vector-effect="non-scaling-stroke"  transform=" translate(-78.2, -35.38)" d="M 78.4 35.8 C 78.7 35.699999999999996 78.80000000000001 35.4 78.7 35.199999999999996 C 78.6 34.99999999999999 78.3 34.8 78 35 C 77.7 35.2 77.6 35.4 77.7 35.7 C 77.8 35.8 78.1 35.9 78.4 35.8" stroke-linecap="round" />
</g>
		<g transform="matrix(1 0 0 1 -141.7 -11.87)" id="Layer_1"  >
<path style="stroke: none; stroke-width: 1; stroke-dasharray: none; stroke-linecap: butt; stroke-dashoffset: 0; stroke-linejoin: miter; stroke-miterlimit: 4; fill: rgb(255,255,255); fill-rule: nonzero; opacity: 1;" vector-effect="non-scaling-stroke"  transform=" translate(-75.1, -36.68)" d="M 75.3 37.1 C 75.6 37 75.7 36.7 75.6 36.5 C 75.5 36.3 75.19999999999999 36.1 74.89999999999999 36.3 C 74.6 36.49999999999999 74.49999999999999 36.699999999999996 74.6 37 C 74.8 37.1 75.1 37.2 75.3 37.1" stroke-linecap="round" />
</g>
		<g transform="matrix(1 0 0 1 -144.7 -10.55)" id="Layer_1"  >
<path style="stroke: none; stroke-width: 1; stroke-dasharray: none; stroke-linecap: butt; stroke-dashoffset: 0; stroke-linejoin: miter; stroke-miterlimit: 4; fill: rgb(255,255,255); fill-rule: nonzero; opacity: 1;" vector-effect="non-scaling-stroke"  transform=" translate(-72.1, -38)" d="M 72.3 38.4 C 72.6 38.3 72.7 38 72.6 37.8 C 72.5 37.599999999999994 72.19999999999999 37.4 71.89999999999999 37.599999999999994 C 71.6 37.79999999999999 71.49999999999999 37.99999999999999 71.6 38.3 C 71.7 38.4 72 38.6 72.3 38.4" stroke-linecap="round" />
</g>
		<g transform="matrix(1 0 0 1 -147.8 -9.17)" id="Layer_1"  >
<path style="stroke: none; stroke-width: 1; stroke-dasharray: none; stroke-linecap: butt; stroke-dashoffset: 0; stroke-linejoin: miter; stroke-miterlimit: 4; fill: rgb(255,255,255); fill-rule: nonzero; opacity: 1;" vector-effect="non-scaling-stroke"  transform=" translate(-69, -39.38)" d="M 69.2 39.8 C 69.5 39.699999999999996 69.60000000000001 39.4 69.5 39.199999999999996 C 69.4 38.99999999999999 69.1 38.8 68.8 38.99999999999999 C 68.5 39.19999999999999 68.39999999999999 39.39999999999999 68.5 39.699999999999996 C 68.7 39.8 69 39.9 69.2 39.8" stroke-linecap="round" />
</g>
		<g transform="matrix(1 0 0 1 -150.8 -7.87)" id="Layer_1"  >
<path style="stroke: none; stroke-width: 1; stroke-dasharray: none; stroke-linecap: butt; stroke-dashoffset: 0; stroke-linejoin: miter; stroke-miterlimit: 4; fill: rgb(255,255,255); fill-rule: nonzero; opacity: 1;" vector-effect="non-scaling-stroke"  transform=" translate(-66, -40.68)" d="M 66.2 41.1 C 66.5 41 66.60000000000001 40.7 66.5 40.5 C 66.4 40.3 66.1 40.1 65.8 40.3 C 65.5 40.49999999999999 65.39999999999999 40.699999999999996 65.5 41 C 65.6 41.1 65.9 41.2 66.2 41.1" stroke-linecap="round" />
</g>
		<g transform="matrix(1 0 0 1 -153.8 -6.67)" id="Layer_1"  >
<path style="stroke: none; stroke-width: 1; stroke-dasharray: none; stroke-linecap: butt; stroke-dashoffset: 0; stroke-linejoin: miter; stroke-miterlimit: 4; fill: rgb(255,255,255); fill-rule: nonzero; opacity: 1;" vector-effect="non-scaling-stroke"  transform=" translate(-63, -41.88)" d="M 63.2 42.3 C 63.5 42.199999999999996 63.6 41.9 63.5 41.699999999999996 C 63.4 41.49999999999999 63.1 41.3 62.8 41.49999999999999 C 62.5 41.599999999999994 62.4 41.89999999999999 62.5 42.199999999999996 C 62.6 42.3 62.9 42.4 63.2 42.3" stroke-linecap="round" />
</g>
		<g transform="matrix(1 0 0 1 -207.6 -17.27)" id="Layer_1"  >
<path style="stroke: none; stroke-width: 1; stroke-dasharray: none; stroke-linecap: butt; stroke-dashoffset: 0; stroke-linejoin: miter; stroke-miterlimit: 4; fill: rgb(255,255,255); fill-rule: nonzero; opacity: 1;" vector-effect="non-scaling-stroke"  transform=" translate(-9.2, -31.28)" d="M 9 31.7 C 8.7 31.599999999999998 8.6 31.3 8.7 31.099999999999998 C 8.799999999999999 30.9 9.1 30.7 9.399999999999999 30.9 C 9.699999999999998 31.099999999999998 9.799999999999999 31.299999999999997 9.7 31.599999999999998 C 9.6 31.7 9.2 31.8 9 31.7" stroke-linecap="round" />
</g>
		<g transform="matrix(1 0 0 1 -204.6 -15.97)" id="Layer_1"  >
<path style="stroke: none; stroke-width: 1; stroke-dasharray: none; stroke-linecap: butt; stroke-dashoffset: 0; stroke-linejoin: miter; stroke-miterlimit: 4; fill: rgb(255,255,255); fill-rule: nonzero; opacity: 1;" vector-effect="non-scaling-stroke"  transform=" translate(-12.2, -32.58)" d="M 12 33 C 11.7 32.9 11.6 32.6 11.7 32.4 C 11.799999999999999 32.199999999999996 12.1 32 12.399999999999999 32.199999999999996 C 12.699999999999998 32.39999999999999 12.799999999999999 32.599999999999994 12.7 32.9 C 12.6 33 12.3 33.1 12 33" stroke-linecap="round" />
</g>
		<g transform="matrix(1 0 0 1 -201.6 -14.67)" id="Layer_1"  >
<path style="stroke: none; stroke-width: 1; stroke-dasharray: none; stroke-linecap: butt; stroke-dashoffset: 0; stroke-linejoin: miter; stroke-miterlimit: 4; fill: rgb(255,255,255); fill-rule: nonzero; opacity: 1;" vector-effect="non-scaling-stroke"  transform=" translate(-15.2, -33.88)" d="M 15 34.3 C 14.7 34.199999999999996 14.6 33.9 14.7 33.699999999999996 C 14.799999999999999 33.49999999999999 15.1 33.3 15.399999999999999 33.49999999999999 C 15.699999999999998 33.69999999999999 15.799999999999999 33.89999999999999 15.7 34.199999999999996 C 15.6 34.3 15.3 34.4 15 34.3" stroke-linecap="round" />
</g>
		<g transform="matrix(1 0 0 1 -198.5 -13.37)" id="Layer_1"  >
<path style="stroke: none; stroke-width: 1; stroke-dasharray: none; stroke-linecap: butt; stroke-dashoffset: 0; stroke-linejoin: miter; stroke-miterlimit: 4; fill: rgb(255,255,255); fill-rule: nonzero; opacity: 1;" vector-effect="non-scaling-stroke"  transform=" translate(-18.3, -35.18)" d="M 18.1 35.6 C 17.8 35.5 17.700000000000003 35.2 17.8 35 C 17.900000000000002 34.8 18.2 34.6 18.5 34.8 C 18.8 34.99999999999999 18.9 35.199999999999996 18.8 35.5 C 18.7 35.6 18.4 35.7 18.1 35.6" stroke-linecap="round" />
</g>
		<g transform="matrix(1 0 0 1 -195.5 -12.07)" id="Layer_1"  >
<path style="stroke: none; stroke-width: 1; stroke-dasharray: none; stroke-linecap: butt; stroke-dashoffset: 0; stroke-linejoin: miter; stroke-miterlimit: 4; fill: rgb(255,255,255); fill-rule: nonzero; opacity: 1;" vector-effect="non-scaling-stroke"  transform=" translate(-21.3, -36.48)" d="M 21.1 36.9 C 20.8 36.8 20.700000000000003 36.5 20.8 36.3 C 20.900000000000002 36.099999999999994 21.2 35.9 21.5 36.099999999999994 C 21.8 36.29999999999999 21.9 36.49999999999999 21.8 36.8 C 21.7 36.9 21.4 37 21.1 36.9" stroke-linecap="round" />
</g>
		<g transform="matrix(1 0 0 1 -192.4 -10.77)" id="Layer_1"  >
<path style="stroke: none; stroke-width: 1; stroke-dasharray: none; stroke-linecap: butt; stroke-dashoffset: 0; stroke-linejoin: miter; stroke-miterlimit: 4; fill: rgb(255,255,255); fill-rule: nonzero; opacity: 1;" vector-effect="non-scaling-stroke"  transform=" translate(-24.4, -37.78)" d="M 24.2 38.2 C 23.9 38.1 23.8 37.800000000000004 23.9 37.6 C 24 37.4 24.299999999999997 37.2 24.599999999999998 37.4 C 24.9 37.599999999999994 24.999999999999996 37.8 24.9 38.1 C 24.8 38.2 24.5 38.3 24.2 38.2" stroke-linecap="round" />
</g>
		<g transform="matrix(1 0 0 1 -189.3 -9.47)" id="Layer_1"  >
<path style="stroke: none; stroke-width: 1; stroke-dasharray: none; stroke-linecap: butt; stroke-dashoffset: 0; stroke-linejoin: miter; stroke-miterlimit: 4; fill: rgb(255,255,255); fill-rule: nonzero; opacity: 1;" vector-effect="non-scaling-stroke"  transform=" translate(-27.5, -39.08)" d="M 27.3 39.5 C 27 39.4 26.900000000000002 39.1 27 38.9 C 27.1 38.699999999999996 27.4 38.5 27.7 38.699999999999996 C 28 38.89999999999999 28.099999999999998 39.099999999999994 28 39.4 C 27.8 39.5 27.5 39.6 27.3 39.5" stroke-linecap="round" />
</g>
		<g transform="matrix(1 0 0 1 -186.3 -8.17)" id="Layer_1"  >
<path style="stroke: none; stroke-width: 1; stroke-dasharray: none; stroke-linecap: butt; stroke-dashoffset: 0; stroke-linejoin: miter; stroke-miterlimit: 4; fill: rgb(255,255,255); fill-rule: nonzero; opacity: 1;" vector-effect="non-scaling-stroke"  transform=" translate(-30.5, -40.38)" d="M 30.3 40.8 C 30 40.699999999999996 29.900000000000002 40.4 30 40.199999999999996 C 30.1 39.99999999999999 30.4 39.8 30.7 39.99999999999999 C 31 40.19999999999999 31.099999999999998 40.39999999999999 31 40.699999999999996 C 30.9 40.8 30.6 40.9 30.3 40.8" stroke-linecap="round" />
</g>
		<g transform="matrix(1 0 0 1 -183.3 -6.87)" id="Layer_1"  >
<path style="stroke: none; stroke-width: 1; stroke-dasharray: none; stroke-linecap: butt; stroke-dashoffset: 0; stroke-linejoin: miter; stroke-miterlimit: 4; fill: rgb(255,255,255); fill-rule: nonzero; opacity: 1;" vector-effect="non-scaling-stroke"  transform=" translate(-33.5, -41.68)" d="M 33.3 42.1 C 33 42 32.9 41.7 33 41.5 C 33.1 41.3 33.4 41.1 33.7 41.3 C 34 41.4 34.1 41.699999999999996 34 42 C 33.9 42.1 33.6 42.2 33.3 42.1" stroke-linecap="round" />
</g>
		<g transform="matrix(1 0 0 1 -161.92 -14.85)" id="Layer_1"  >
<path style="stroke: none; stroke-width: 1; stroke-dasharray: none; stroke-linecap: butt; stroke-dashoffset: 0; stroke-linejoin: miter; stroke-miterlimit: 4; fill: rgb(255,255,255); fill-rule: nonzero; opacity: 1;" vector-effect="non-scaling-stroke"  transform=" translate(-54.88, -33.7)" d="M 55.3 33.9 C 55.199999999999996 34.199999999999996 54.9 34.3 54.699999999999996 34.199999999999996 C 54.49999999999999 34.099999999999994 54.3 33.8 54.49999999999999 33.49999999999999 C 54.599999999999994 33.199999999999996 54.89999999999999 33.099999999999994 55.199999999999996 33.199999999999996 C 55.3 33.3 55.4 33.6 55.3 33.9" stroke-linecap="round" />
</g>
		<g transform="matrix(1 0 0 1 -160.62 -17.95)" id="Layer_1"  >
<path style="stroke: none; stroke-width: 1; stroke-dasharray: none; stroke-linecap: butt; stroke-dashoffset: 0; stroke-linejoin: miter; stroke-miterlimit: 4; fill: rgb(255,255,255); fill-rule: nonzero; opacity: 1;" vector-effect="non-scaling-stroke"  transform=" translate(-56.18, -30.6)" d="M 56.6 30.8 C 56.5 31.1 56.2 31.2 56 31.1 C 55.8 31 55.6 30.700000000000003 55.8 30.400000000000002 C 55.9 30.1 56.199999999999996 30.000000000000004 56.5 30.1 C 56.6 30.3 56.7 30.6 56.6 30.8" stroke-linecap="round" />
</g>
		<g transform="matrix(1 0 0 1 -159.32 -20.95)" id="Layer_1"  >
<path style="stroke: none; stroke-width: 1; stroke-dasharray: none; stroke-linecap: butt; stroke-dashoffset: 0; stroke-linejoin: miter; stroke-miterlimit: 4; fill: rgb(255,255,255); fill-rule: nonzero; opacity: 1;" vector-effect="non-scaling-stroke"  transform=" translate(-57.48, -27.6)" d="M 57.9 27.8 C 57.8 28.1 57.5 28.2 57.3 28.1 C 57.099999999999994 28 56.9 27.700000000000003 57.099999999999994 27.400000000000002 C 57.199999999999996 27.1 57.49999999999999 27.000000000000004 57.8 27.1 C 57.9 27.2 58 27.5 57.9 27.8" stroke-linecap="round" />
</g>
		<g transform="matrix(1 0 0 1 -158.02 -24.05)" id="Layer_1"  >
<path style="stroke: none; stroke-width: 1; stroke-dasharray: none; stroke-linecap: butt; stroke-dashoffset: 0; stroke-linejoin: miter; stroke-miterlimit: 4; fill: rgb(255,255,255); fill-rule: nonzero; opacity: 1;" vector-effect="non-scaling-stroke"  transform=" translate(-58.78, -24.5)" d="M 59.2 24.7 C 59.1 25 58.800000000000004 25.099999999999998 58.6 25 C 58.4 24.9 58.2 24.6 58.4 24.3 C 58.5 24 58.8 23.900000000000002 59.1 24 C 59.2 24.1 59.3 24.4 59.2 24.7" stroke-linecap="round" />
</g>
		<g transform="matrix(1 0 0 1 -156.72 -27.05)" id="Layer_1"  >
<path style="stroke: none; stroke-width: 1; stroke-dasharray: none; stroke-linecap: butt; stroke-dashoffset: 0; stroke-linejoin: miter; stroke-miterlimit: 4; fill: rgb(255,255,255); fill-rule: nonzero; opacity: 1;" vector-effect="non-scaling-stroke"  transform=" translate(-60.08, -21.5)" d="M 60.5 21.7 C 60.4 22 60.1 22.099999999999998 59.9 22 C 59.699999999999996 21.9 59.5 21.6 59.699999999999996 21.3 C 59.8 21 60.099999999999994 20.900000000000002 60.4 21 C 60.5 21.1 60.6 21.4 60.5 21.7" stroke-linecap="round" />
</g>
		<g transform="matrix(1 0 0 1 -155.42 -30.15)" id="Layer_1"  >
<path style="stroke: none; stroke-width: 1; stroke-dasharray: none; stroke-linecap: butt; stroke-dashoffset: 0; stroke-linejoin: miter; stroke-miterlimit: 4; fill: rgb(255,255,255); fill-rule: nonzero; opacity: 1;" vector-effect="non-scaling-stroke"  transform=" translate(-61.38, -18.4)" d="M 61.8 18.6 C 61.699999999999996 18.900000000000002 61.4 19 61.199999999999996 18.900000000000002 C 60.99999999999999 18.8 60.8 18.500000000000004 60.99999999999999 18.200000000000003 C 61.099999999999994 17.900000000000002 61.39999999999999 17.800000000000004 61.699999999999996 17.900000000000002 C 61.8 18.1 61.9 18.4 61.8 18.6" stroke-linecap="round" />
</g>
		<g transform="matrix(1 0 0 1 -154.12 -33.15)" id="Layer_1"  >
<path style="stroke: none; stroke-width: 1; stroke-dasharray: none; stroke-linecap: butt; stroke-dashoffset: 0; stroke-linejoin: miter; stroke-miterlimit: 4; fill: rgb(255,255,255); fill-rule: nonzero; opacity: 1;" vector-effect="non-scaling-stroke"  transform=" translate(-62.68, -15.4)" d="M 63.1 15.6 C 63 15.9 62.7 16 62.5 15.9 C 62.3 15.8 62.1 15.5 62.3 15.200000000000001 C 62.4 14.9 62.699999999999996 14.8 63 14.9 C 63.1 15 63.2 15.3 63.1 15.6" stroke-linecap="round" />
</g>
		<g transform="matrix(1 0 0 1 -152.82 -36.15)" id="Layer_1"  >
<path style="stroke: none; stroke-width: 1; stroke-dasharray: none; stroke-linecap: butt; stroke-dashoffset: 0; stroke-linejoin: miter; stroke-miterlimit: 4; fill: rgb(255,255,255); fill-rule: nonzero; opacity: 1;" vector-effect="non-scaling-stroke"  transform=" translate(-63.98, -12.4)" d="M 64.4 12.6 C 64.30000000000001 12.9 64 13 63.800000000000004 12.9 C 63.6 12.8 63.400000000000006 12.5 63.6 12.200000000000001 C 63.7 11.9 64 11.8 64.3 11.9 C 64.4 12 64.5 12.3 64.4 12.6" stroke-linecap="round" />
</g>
		<g transform="matrix(1 0 0 1 -151.52 -39.25)" id="Layer_1"  >
<path style="stroke: none; stroke-width: 1; stroke-dasharray: none; stroke-linecap: butt; stroke-dashoffset: 0; stroke-linejoin: miter; stroke-miterlimit: 4; fill: rgb(255,255,255); fill-rule: nonzero; opacity: 1;" vector-effect="non-scaling-stroke"  transform=" translate(-65.28, -9.3)" d="M 65.7 9.5 C 65.60000000000001 9.8 65.3 9.9 65.10000000000001 9.8 C 64.9 9.700000000000001 64.7 9.4 64.9 9.100000000000001 C 65 8.8 65.30000000000001 8.700000000000001 65.60000000000001 8.8 C 65.7 8.9 65.8 9.2 65.7 9.5" stroke-linecap="round" />
</g>
		<g transform="matrix(1 0 0 1 -175.38 -14.55)" id="Layer_1"  >
<path style="stroke: none; stroke-width: 1; stroke-dasharray: none; stroke-linecap: butt; stroke-dashoffset: 0; stroke-linejoin: miter; stroke-miterlimit: 4; fill: rgb(255,255,255); fill-rule: nonzero; opacity: 1;" vector-effect="non-scaling-stroke"  transform=" translate(-41.42, -34)" d="M 41 34.2 C 41.1 34.5 41.4 34.6 41.6 34.5 C 41.800000000000004 34.4 42 34.1 41.800000000000004 33.8 C 41.7 33.5 41.400000000000006 33.4 41.1 33.5 C 41 33.6 40.9 33.9 41 34.2" stroke-linecap="round" />
</g>
		<g transform="matrix(1 0 0 1 -176.68 -17.65)" id="Layer_1"  >
<path style="stroke: none; stroke-width: 1; stroke-dasharray: none; stroke-linecap: butt; stroke-dashoffset: 0; stroke-linejoin: miter; stroke-miterlimit: 4; fill: rgb(255,255,255); fill-rule: nonzero; opacity: 1;" vector-effect="non-scaling-stroke"  transform=" translate(-40.12, -30.9)" d="M 39.7 31.1 C 39.800000000000004 31.400000000000002 40.1 31.5 40.300000000000004 31.400000000000002 C 40.50000000000001 31.3 40.7 31.000000000000004 40.50000000000001 30.700000000000003 C 40.30000000000001 30.400000000000002 40.10000000000001 30.300000000000004 39.800000000000004 30.400000000000002 C 39.7 30.6 39.6 30.9 39.7 31.1" stroke-linecap="round" />
</g>
		<g transform="matrix(1 0 0 1 -177.98 -20.65)" id="Layer_1"  >
<path style="stroke: none; stroke-width: 1; stroke-dasharray: none; stroke-linecap: butt; stroke-dashoffset: 0; stroke-linejoin: miter; stroke-miterlimit: 4; fill: rgb(255,255,255); fill-rule: nonzero; opacity: 1;" vector-effect="non-scaling-stroke"  transform=" translate(-38.82, -27.9)" d="M 38.4 28.1 C 38.5 28.400000000000002 38.8 28.5 39 28.400000000000002 C 39.2 28.3 39.4 28.000000000000004 39.2 27.700000000000003 C 39.1 27.400000000000002 38.800000000000004 27.300000000000004 38.5 27.400000000000002 C 38.4 27.5 38.3 27.8 38.4 28.1" stroke-linecap="round" />
</g>
		<g transform="matrix(1 0 0 1 -179.28 -23.75)" id="Layer_1"  >
<path style="stroke: none; stroke-width: 1; stroke-dasharray: none; stroke-linecap: butt; stroke-dashoffset: 0; stroke-linejoin: miter; stroke-miterlimit: 4; fill: rgb(255,255,255); fill-rule: nonzero; opacity: 1;" vector-effect="non-scaling-stroke"  transform=" translate(-37.52, -24.8)" d="M 37.1 25 C 37.2 25.3 37.5 25.4 37.7 25.3 C 37.900000000000006 25.2 38.1 24.900000000000002 37.900000000000006 24.6 C 37.800000000000004 24.3 37.50000000000001 24.200000000000003 37.2 24.3 C 37.1 24.4 37 24.8 37.1 25" stroke-linecap="round" />
</g>
		<g transform="matrix(1 0 0 1 -180.58 -26.75)" id="Layer_1"  >
<path style="stroke: none; stroke-width: 1; stroke-dasharray: none; stroke-linecap: butt; stroke-dashoffset: 0; stroke-linejoin: miter; stroke-miterlimit: 4; fill: rgb(255,255,255); fill-rule: nonzero; opacity: 1;" vector-effect="non-scaling-stroke"  transform=" translate(-36.22, -21.8)" d="M 35.8 22 C 35.9 22.3 36.199999999999996 22.4 36.4 22.3 C 36.6 22.2 36.8 21.900000000000002 36.6 21.6 C 36.5 21.3 36.2 21.200000000000003 35.9 21.3 C 35.8 21.4 35.7 21.7 35.8 22" stroke-linecap="round" />
</g>
		<g transform="matrix(1 0 0 1 -181.88 -29.85)" id="Layer_1"  >
<path style="stroke: none; stroke-width: 1; stroke-dasharray: none; stroke-linecap: butt; stroke-dashoffset: 0; stroke-linejoin: miter; stroke-miterlimit: 4; fill: rgb(255,255,255); fill-rule: nonzero; opacity: 1;" vector-effect="non-scaling-stroke"  transform=" translate(-34.92, -18.7)" d="M 34.5 18.9 C 34.6 19.2 34.9 19.299999999999997 35.1 19.2 C 35.300000000000004 19.099999999999998 35.5 18.8 35.300000000000004 18.5 C 35.2 18.2 34.900000000000006 18.1 34.6 18.2 C 34.5 18.4 34.4 18.7 34.5 18.9" stroke-linecap="round" />
</g>
		<g transform="matrix(1 0 0 1 -183.18 -32.85)" id="Layer_1"  >
<path style="stroke: none; stroke-width: 1; stroke-dasharray: none; stroke-linecap: butt; stroke-dashoffset: 0; stroke-linejoin: miter; stroke-miterlimit: 4; fill: rgb(255,255,255); fill-rule: nonzero; opacity: 1;" vector-effect="non-scaling-stroke"  transform=" translate(-33.62, -15.7)" d="M 33.2 15.9 C 33.300000000000004 16.2 33.6 16.3 33.800000000000004 16.2 C 34.00000000000001 16.099999999999998 34.2 15.799999999999999 34.00000000000001 15.5 C 33.900000000000006 15.2 33.60000000000001 15.1 33.300000000000004 15.2 C 33.2 15.3 33.1 15.6 33.2 15.9" stroke-linecap="round" />
</g>
		<g transform="matrix(1 0 0 1 -184.48 -35.85)" id="Layer_1"  >
<path style="stroke: none; stroke-width: 1; stroke-dasharray: none; stroke-linecap: butt; stroke-dashoffset: 0; stroke-linejoin: miter; stroke-miterlimit: 4; fill: rgb(255,255,255); fill-rule: nonzero; opacity: 1;" vector-effect="non-scaling-stroke"  transform=" translate(-32.32, -12.7)" d="M 31.9 12.9 C 32 13.200000000000001 32.3 13.3 32.5 13.200000000000001 C 32.7 13.100000000000001 32.9 12.8 32.7 12.500000000000002 C 32.6 12.200000000000001 32.300000000000004 12.100000000000001 32 12.200000000000001 C 31.9 12.3 31.8 12.6 31.9 12.9" stroke-linecap="round" />
</g>
		<g transform="matrix(1 0 0 1 -185.78 -38.95)" id="Layer_1"  >
<path style="stroke: none; stroke-width: 1; stroke-dasharray: none; stroke-linecap: butt; stroke-dashoffset: 0; stroke-linejoin: miter; stroke-miterlimit: 4; fill: rgb(255,255,255); fill-rule: nonzero; opacity: 1;" vector-effect="non-scaling-stroke"  transform=" translate(-31.02, -9.6)" d="M 30.6 9.8 C 30.700000000000003 10.100000000000001 31 10.200000000000001 31.200000000000003 10.100000000000001 C 31.400000000000002 10.000000000000002 31.6 9.700000000000001 31.400000000000002 9.400000000000002 C 31.3 9.1 31 9 30.7 9.1 C 30.6 9.2 30.5 9.6 30.6 9.8" stroke-linecap="round" />
</g>
		<g transform="matrix(1 0 0 1 -129.7 17.47)" id="Layer_1"  >
<path style="stroke: none; stroke-width: 1; stroke-dasharray: none; stroke-linecap: butt; stroke-dashoffset: 0; stroke-linejoin: miter; stroke-miterlimit: 4; fill: rgb(255,255,255); fill-rule: nonzero; opacity: 1;" vector-effect="non-scaling-stroke"  transform=" translate(-87.1, -66.02)" d="M 87.3 65.6 C 87.6 65.69999999999999 87.7 66 87.6 66.19999999999999 C 87.49999999999999 66.39999999999998 87.19999999999999 66.6 86.89999999999999 66.39999999999999 C 86.6 66.3 86.49999999999999 65.99999999999999 86.6 65.69999999999999 C 86.8 65.6 87.1 65.5 87.3 65.6" stroke-linecap="round" />
</g>
		<g transform="matrix(1 0 0 1 -132.7 16.17)" id="Layer_1"  >
<path style="stroke: none; stroke-width: 1; stroke-dasharray: none; stroke-linecap: butt; stroke-dashoffset: 0; stroke-linejoin: miter; stroke-miterlimit: 4; fill: rgb(255,255,255); fill-rule: nonzero; opacity: 1;" vector-effect="non-scaling-stroke"  transform=" translate(-84.1, -64.72)" d="M 84.3 64.3 C 84.6 64.39999999999999 84.7 64.7 84.6 64.89999999999999 C 84.49999999999999 65.09999999999998 84.19999999999999 65.3 83.89999999999999 65.1 C 83.6 65 83.49999999999999 64.69999999999999 83.6 64.39999999999999 C 83.7 64.3 84 64.2 84.3 64.3" stroke-linecap="round" />
</g>
		<g transform="matrix(1 0 0 1 -135.7 14.87)" id="Layer_1"  >
<path style="stroke: none; stroke-width: 1; stroke-dasharray: none; stroke-linecap: butt; stroke-dashoffset: 0; stroke-linejoin: miter; stroke-miterlimit: 4; fill: rgb(255,255,255); fill-rule: nonzero; opacity: 1;" vector-effect="non-scaling-stroke"  transform=" translate(-81.1, -63.42)" d="M 81.3 63 C 81.6 63.1 81.7 63.4 81.6 63.6 C 81.5 63.800000000000004 81.19999999999999 64 80.89999999999999 63.800000000000004 C 80.6 63.7 80.49999999999999 63.400000000000006 80.6 63.1 C 80.7 63 81 62.9 81.3 63" stroke-linecap="round" />
</g>
		<g transform="matrix(1 0 0 1 -138.8 13.57)" id="Layer_1"  >
<path style="stroke: none; stroke-width: 1; stroke-dasharray: none; stroke-linecap: butt; stroke-dashoffset: 0; stroke-linejoin: miter; stroke-miterlimit: 4; fill: rgb(255,255,255); fill-rule: nonzero; opacity: 1;" vector-effect="non-scaling-stroke"  transform=" translate(-78, -62.12)" d="M 78.2 61.7 C 78.5 61.800000000000004 78.60000000000001 62.1 78.5 62.300000000000004 C 78.4 62.50000000000001 78.1 62.7 77.8 62.50000000000001 C 77.5 62.30000000000001 77.39999999999999 62.10000000000001 77.5 61.800000000000004 C 77.7 61.7 78 61.6 78.2 61.7" stroke-linecap="round" />
</g>
		<g transform="matrix(1 0 0 1 -141.8 12.27)" id="Layer_1"  >
<path style="stroke: none; stroke-width: 1; stroke-dasharray: none; stroke-linecap: butt; stroke-dashoffset: 0; stroke-linejoin: miter; stroke-miterlimit: 4; fill: rgb(255,255,255); fill-rule: nonzero; opacity: 1;" vector-effect="non-scaling-stroke"  transform=" translate(-75, -60.82)" d="M 75.2 60.4 C 75.5 60.5 75.60000000000001 60.8 75.5 61 C 75.4 61.2 75.1 61.4 74.8 61.2 C 74.5 61.1 74.39999999999999 60.800000000000004 74.5 60.5 C 74.6 60.4 74.9 60.3 75.2 60.4" stroke-linecap="round" />
</g>
		<g transform="matrix(1 0 0 1 -144.9 11)" id="Layer_1"  >
<path style="stroke: none; stroke-width: 1; stroke-dasharray: none; stroke-linecap: butt; stroke-dashoffset: 0; stroke-linejoin: miter; stroke-miterlimit: 4; fill: rgb(255,255,255); fill-rule: nonzero; opacity: 1;" vector-effect="non-scaling-stroke"  transform=" translate(-71.9, -59.55)" d="M 72.1 59.1 C 72.39999999999999 59.2 72.5 59.5 72.39999999999999 59.7 C 72.3 60 72 60.1 71.7 60 C 71.4 59.9 71.3 59.6 71.4 59.3 C 71.6 59.1 71.9 59 72.1 59.1" stroke-linecap="round" />
</g>
		<g transform="matrix(1 0 0 1 -147.9 9.67)" id="Layer_1"  >
<path style="stroke: none; stroke-width: 1; stroke-dasharray: none; stroke-linecap: butt; stroke-dashoffset: 0; stroke-linejoin: miter; stroke-miterlimit: 4; fill: rgb(255,255,255); fill-rule: nonzero; opacity: 1;" vector-effect="non-scaling-stroke"  transform=" translate(-68.9, -58.22)" d="M 69.1 57.8 C 69.39999999999999 57.9 69.5 58.199999999999996 69.39999999999999 58.4 C 69.3 58.6 68.99999999999999 58.8 68.69999999999999 58.6 C 68.39999999999999 58.400000000000006 68.29999999999998 58.2 68.39999999999999 57.9 C 68.5 57.8 68.8 57.7 69.1 57.8" stroke-linecap="round" />
</g>
		<g transform="matrix(1 0 0 1 -151 8.37)" id="Layer_1"  >
<path style="stroke: none; stroke-width: 1; stroke-dasharray: none; stroke-linecap: butt; stroke-dashoffset: 0; stroke-linejoin: miter; stroke-miterlimit: 4; fill: rgb(255,255,255); fill-rule: nonzero; opacity: 1;" vector-effect="non-scaling-stroke"  transform=" translate(-65.8, -56.92)" d="M 66 56.5 C 66.3 56.6 66.4 56.9 66.3 57.1 C 66.2 57.300000000000004 65.89999999999999 57.5 65.6 57.300000000000004 C 65.3 57.10000000000001 65.19999999999999 56.900000000000006 65.3 56.6 C 65.4 56.5 65.8 56.4 66 56.5" stroke-linecap="round" />
</g>
		<g transform="matrix(1 0 0 1 -154 7.07)" id="Layer_1"  >
<path style="stroke: none; stroke-width: 1; stroke-dasharray: none; stroke-linecap: butt; stroke-dashoffset: 0; stroke-linejoin: miter; stroke-miterlimit: 4; fill: rgb(255,255,255); fill-rule: nonzero; opacity: 1;" vector-effect="non-scaling-stroke"  transform=" translate(-62.8, -55.62)" d="M 63 55.2 C 63.3 55.300000000000004 63.4 55.6 63.3 55.800000000000004 C 63.199999999999996 56.00000000000001 62.9 56.2 62.599999999999994 56.00000000000001 C 62.29999999999999 55.80000000000001 62.199999999999996 55.60000000000001 62.3 55.300000000000004 C 62.4 55.2 62.8 55.1 63 55.2" stroke-linecap="round" />
</g>
		<g transform="matrix(1 0 0 1 -168.3 -0.05)" id="Layer_1"  >
<path style="stroke: none; stroke-width: 1; stroke-dasharray: none; stroke-linecap: butt; stroke-dashoffset: 0; stroke-linejoin: miter; stroke-miterlimit: 4; fill: rgb(255,255,255); fill-rule: nonzero; opacity: 1;" vector-effect="non-scaling-stroke"  transform=" translate(-48.5, -48.5)" d="M 1.9 48.5 C 1.9 22.8 22.799999999999997 1.8999999999999986 48.5 1.8999999999999986 C 74.2 1.8999999999999986 95.1 22.799999999999997 95.1 48.5 C 95.1 74.2 74.3 95.2 48.5 95.2 C 22.700000000000003 95.2 1.9 74.2 1.9 48.5 M 0 48.5 C 0 75.3 21.8 97 48.5 97 C 75.2 97 97 75.2 97 48.5 C 97 21.799999999999997 75.3 0 48.5 0 C 21.700000000000003 0 0 21.8 0 48.5" stroke-linecap="round" />
</g>
		<g transform="matrix(0.71 -0.71 0.71 0.71 -142.85 25.8)" id="Layer_1"  >
<rect style="stroke: none; stroke-width: 1; stroke-dasharray: none; stroke-linecap: butt; stroke-dashoffset: 0; stroke-linejoin: miter; stroke-miterlimit: 4; fill: rgb(255,255,255); fill-rule: nonzero; opacity: 1;" vector-effect="non-scaling-stroke"  x="-0.25" y="-8.65" rx="0" ry="0" width="0.5" height="17.3" />
</g>
		<g transform="matrix(1 0 0 1 -193.55 -25.3)" id="Layer_1"  >
<polygon style="stroke: none; stroke-width: 1; stroke-dasharray: none; stroke-linecap: butt; stroke-dashoffset: 0; stroke-linejoin: miter; stroke-miterlimit: 4; fill: rgb(255,255,255); fill-rule: nonzero; opacity: 1;" vector-effect="non-scaling-stroke"  points="-6.05,-5.65 5.65,6.05 6.05,5.75 -5.75,-6.05 " />
</g>
		<g transform="matrix(1 0 0 1 -142.85 -25.25)" id="Layer_1"  >
<polygon style="stroke: none; stroke-width: 1; stroke-dasharray: none; stroke-linecap: butt; stroke-dashoffset: 0; stroke-linejoin: miter; stroke-miterlimit: 4; fill: rgb(255,255,255); fill-rule: nonzero; opacity: 1;" vector-effect="non-scaling-stroke"  points="-5.85,5.5 -5.55,5.9 5.85,-5.6 5.55,-5.9 " />
</g>
		<g transform="matrix(1 0 0 1 -193.6 25.85)" id="Layer_1"  >
<polygon style="stroke: none; stroke-width: 1; stroke-dasharray: none; stroke-linecap: butt; stroke-dashoffset: 0; stroke-linejoin: miter; stroke-miterlimit: 4; fill: rgb(255,255,255); fill-rule: nonzero; opacity: 1;" vector-effect="non-scaling-stroke"  points="-5.7,5.3 -5.3,5.7 5.7,-5.4 5.4,-5.7 " />
</g>
		<g transform="matrix(1 0 0 1 -167.54 0)" id="Layer_1"  >
<path style="stroke: none; stroke-width: 1; stroke-dasharray: none; stroke-linecap: butt; stroke-dashoffset: 0; stroke-linejoin: miter; stroke-miterlimit: 4; fill: rgb(255,255,255); fill-rule: nonzero; opacity: 1;" vector-effect="non-scaling-stroke"  transform=" translate(-49.26, -48.55)" d="M 48.2 44.4 L 46.7 44.4 L 46.7 50.9 C 46.7 52.4 46.900000000000006 52.699999999999996 48 52.699999999999996 L 48.2 52.699999999999996 C 51.2 52.699999999999996 51.800000000000004 50.4 51.800000000000004 48.599999999999994 C 51.9 46.7 51.3 44.4 48.2 44.4 z" stroke-linecap="round" />
</g>
		<g transform="matrix(1 0 0 1 -168.25 0)" id="Layer_1"  >
<path style="stroke: none; stroke-width: 1; stroke-dasharray: none; stroke-linecap: butt; stroke-dashoffset: 0; stroke-linejoin: miter; stroke-miterlimit: 4; fill: rgb(255,255,255); fill-rule: nonzero; opacity: 1;" vector-effect="non-scaling-stroke"  transform=" translate(-48.55, -48.55)" d="M 91.8 48.4 L 56.9 43.5 L 65.7 31.4 L 53.6 39.9 L 48.4 5.3 L 43.6 39.9 L 31.5 31.4 L 40 43.5 L 5.3 48.4 L 40.199999999999996 53.6 L 31.399999999999995 65.7 L 43.49999999999999 57.2 L 48.29999999999999 91.80000000000001 L 53.49999999999999 56.90000000000001 L 65.6 65.70000000000002 L 57.099999999999994 53.600000000000016 L 91.8 48.4 z M 48.2 53.5 L 43.300000000000004 53.5 L 43.300000000000004 53 C 44.800000000000004 53 45.1 52.6 45.1 50.3 L 45.1 46.599999999999994 C 45.1 44.3 44.800000000000004 43.89999999999999 43.300000000000004 43.89999999999999 L 43.300000000000004 43.39999999999999 L 48.2 43.39999999999999 C 52.1 43.39999999999999 53.800000000000004 45.69999999999999 53.800000000000004 48.39999999999999 C 53.8 51.3 52.1 53.5 48.2 53.5 z" stroke-linecap="round" />
</g>
</g>
</g>
</svg>